<svg xmlns="http://www.w3.org/2000/svg" viewBox="0 0 1022.23 1122.6"><defs><style>.a,.b{fill:#bc0913;}.b{font-size:27.1px;font-family:MuseoSans-100, MuseoSans 100;}</style></defs><title>ClanAODmodern2_red</title><path class="a" d="M511.3,238.78a330.07,330.07,0,0,1,47.7-8.41,337.81,337.81,0,0,1,49.54-.74c16.09.79,32.16.77,48.09,3.43,16.42,2.73,32.65,6.5,48.82,10.43A404.06,404.06,0,0,1,750.7,257c15,5.54,29.58,11.92,44,18.68a454.37,454.37,0,0,1,76.19,44.63c11.9,8.73,23,18.27,34.07,28,11.54,10.22,23.26,20.34,33.5,31.9,10.73,12.12,20.19,25.42,29.55,38.6s18.38,26.55,27.11,40.13c16.78,26.1,27.46,55.55,36.85,85,5,15.66,9.75,31.52,13.46,47.55a318.08,318.08,0,0,1,6.77,47.3c2.51,32.67,1.52,65.73-4.32,98-5.56,30.76-15.76,60.36-29,88.64-24.48,52.38-59.16,102.21-104.41,138.71-23.76,19.17-50.48,33.4-78.34,45.63a529,529,0,0,1-90.3,30.12c-31.43,7.47-63.66,11.85-96,11.44-31-.39-62.25-5.18-92.55-11.68a452.9,452.9,0,0,1-86.73-27.53,492.13,492.13,0,0,1-76.78-42.58c-47.93-32.22-90.7-73-123.1-121q-6-8.84-11.45-18-2.74-4.59-5.36-9.27c-.9-1.6-1.83-3.2-2.65-4.84s-.64-2-.4-3.67a431.42,431.42,0,0,0,51.27,23.88,396.48,396.48,0,0,0,54.05,16.21c38.62,8.63,79.09,12.27,118.32,5.75,35-5.81,69.46-15.61,101.55-30.82,31-14.69,59.83-34.38,83.87-58.94a279.75,279.75,0,0,0,54.34-80.22C729.76,654.46,739.72,617.54,742,580a278.69,278.69,0,0,0-2.93-59.84,415.47,415.47,0,0,0-13-58.32c-11.09-36-30.35-69.63-53.24-99.43a377.4,377.4,0,0,0-77.65-75.72c-23.68-17.17-49.14-31.38-75.52-43.92ZM703,303.38c-.76,1.19-.69.68-.1,1.89a12.78,12.78,0,0,0,1.9,2.23c1.08,1.22,2.23,2.35,3.4,3.48,2.56,2.5,5.08,5,7.7,7.47,5.33,4.93,10.91,9.26,15.63,14.84,9.09,10.74,16.91,22.77,24.11,34.84a376.3,376.3,0,0,1,34.07,75.72,437.52,437.52,0,0,1,18.87,87.05c1.77,15.52,3.45,31,3.8,46.65a363.31,363.31,0,0,1-1.9,46c-6,57.23-25.14,114.46-58.32,161.79-30.85,44-76.58,75.58-125.17,97.28a370.8,370.8,0,0,1-81.47,25.49c-30.39,5.83-61.26,8.54-92,11.29l-11.56,1a35.81,35.81,0,0,0-4.76.48,32.6,32.6,0,0,0-4.23,1.71c7.89,5.73,16.64,9.91,25.25,14.5,9.3,5,18.61,9.9,28,14.63,18,9,36.31,16.5,56.05,20.91,19.51,4.36,39.48,6.24,59.43,7A444.45,444.45,0,0,0,666.22,978c20.55-2.17,41.13-5.21,61.21-10.13a356.32,356.32,0,0,0,54.12-18.27,388.13,388.13,0,0,0,93.07-56.17c14.37-11.68,28-24.11,39.33-38.83,11.6-15.09,21.06-31.78,29-49a387.11,387.11,0,0,0,20.57-56.64,234.65,234.65,0,0,0,9-62.19c.48-41.24-5.87-83.35-17.58-122.86a401.24,401.24,0,0,0-49.22-106.25c-20.67-31.4-46-59.91-75.35-83.4a457.78,457.78,0,0,0-48.1-33.09,440.06,440.06,0,0,0-51.88-27.2c-9-3.93-18.06-7.38-27.34-10.5-.16.25,1.21.61,1.35.57,0,0-1.37-.58-1.35-.57C702.79,303.77,706.24,304.46,703,303.38Z" transform="translate(-63.99 -15.89)"/><path class="a" d="M549,295.57c-14.7,12.86-27.5,24.08-40.87,38.35a376.11,376.11,0,0,0-35.46,44c-22.14,32.19-39.56,68-48.08,106.31-4.58,20.56-8.39,41.83-9.84,62.85a265.61,265.61,0,0,0,3.66,64.34A324.1,324.1,0,0,0,460,721.81c18.84,31.31,44.59,57.85,74.41,78.85,3.36,2.37,6.73,4.71,10.1,7.08-10.56,3.95-21,7.93-31.83,11s-21.86,5.65-33,7.65c-5.72,1-11.47,1.94-17.26,2.48-2.72.25-5.45.45-8.17.7s-5.5.91-8.13.1c-4.42-1.36-8.13-6.11-11.35-9.23q-5.69-5.53-11-11.4c-28.92-31.81-49.1-71-62.17-111.81-14.33-44.68-19.42-91.32-16.06-138.09,1.68-23.41,4.14-46.82,9.1-69.79a442.34,442.34,0,0,1,18.42-63.12c7.74-20.46,17-40.74,28.89-59.17,6.19-9.62,13.08-18.75,19.7-28.07a112.52,112.52,0,0,1,9.45-11.93c4-4.3,8.71-8.1,13-12.1,3.64-3.35,7.73-6.51,9.72-11.17-7.84,1.67-15.38,4.95-22.77,8s-14.7,6.37-21.89,9.9a449,449,0,0,0-42.89,24.23c-27.15,17.27-53,36.81-75,60.37A383.47,383.47,0,0,0,235.6,483a367.88,367.88,0,0,0-20.41,43.84c-6,15.37-11.87,31-16.43,46.86-4.62,16.07-7.51,32.57-9.83,49.11a462.66,462.66,0,0,0-4.82,51.48,251.28,251.28,0,0,0,3.6,51.8A293.07,293.07,0,0,0,201,773.68c5.69,15.68,13.25,30.6,18.65,46.38a109.81,109.81,0,0,0,4,10.77c1.61,3.46,3.72,6.76,5.65,10q6.1,10.39,12.74,20.46a458.85,458.85,0,0,0,59.13,72.32A515.27,515.27,0,0,0,374.88,994c27.21,18.54,55.81,35,86.24,47.66,6.88,2.86,13.8,5.6,20.54,8.78-.63,0-16.26-.76-16.25-1.1,0-.15,14.74.39,16.25,1.1-41.63-2.29-82.48-12-121.86-25.36-37.85-12.87-75.52-29.59-107.87-53.36C220.82,948.9,195,919.3,173.19,887.62A423.54,423.54,0,0,1,122.2,787c-13.93-39.94-19.7-81.82-19-124.06a376.44,376.44,0,0,1,6.61-64.19c4.1-21.39,10.48-42.14,17.72-62.65q5.38-15.23,11.22-30.28c3.8-9.82,7.54-19.68,12.4-29,9.45-18.18,21.62-35,33.14-51.88,11.72-17.2,23.92-34.23,38.29-49.35,14-14.71,29.58-28.08,45.16-41.07,31.39-26.18,67.28-47,104.67-63.36,13.68-6,27.61-12.14,41.9-16.54l28.6-8.81,6.7-2.06a115.24,115.24,0,0,1,15.07,6c8.3,3.69,37.28,18.43,45.19,22.9Z" transform="translate(-63.99 -15.89)"/><path class="a" d="M148.19,935.66c9.65,12.06,19.06,24.33,29.59,35.65a296.91,296.91,0,0,0,31.66,29.43c23.5,18.84,49.72,33.49,77.31,45.44,16.44,7.12,33.29,12.91,50.19,18.8-16.53.94-33.1,1.4-49.6,2.72-17.3,1.38-34.45,3.93-51.59,6.58-33.15,5.12-66.65,12.4-97.73,25.28-14.18,5.88-28.33,12.29-41.41,20.36a137.87,137.87,0,0,0-18.39,13.42c-2.64,2.31-5.13,5.49-9,5.12a5.48,5.48,0,0,1-5.21-5.7c0-3.52.81-7.3,1.34-10.78a56.25,56.25,0,0,1,3-11.5q4.6-12.22,9.49-24.32,9.66-23.9,20.8-47.14,22.46-46.74,44.5-93.68a72.67,72.67,0,0,1,5.11-9.68C153.83,942.71,147.26,937.05,148.19,935.66Z" transform="translate(-63.99 -15.89)"/><path class="a" d="M482.94,204.82c24.9-57,50.9-113.48,74.69-170.94,2.14-5.17,4.69-9.93,9.41-13.17,4.18-2.87,9.22-4.11,14.21-4.64,11.44-1.23,20.84,3.67,27.54,12.83,8.18,11.19,12.53,24.67,15,38.17,1.4,7.61,2.33,15.3,3.54,22.94a76.89,76.89,0,0,0,6,20.74c7.32,16,14.51,32.06,21.81,48.07q5.56,12.2,11.12,24.39c3.3,7.23,7.16,14.41,9.58,22-23.16-9.05-47.12-16.08-71.93-18.56A195.89,195.89,0,0,0,568,186c-13.62,1.16-27,4.15-40.21,7.52-15,3.82-29.77,8.18-44.89,11.34C485.7,198.5,515.24,198.06,482.94,204.82Z" transform="translate(-63.99 -15.89)"/><path class="a" d="M1006,931.85q22.29,47.83,44.28,95.8c3.69,8,7.41,16,11,24.09,1.69,3.76,3,8,5.18,11.54,1.67,2.71,4.59,3.33,7.3,4.56,4.64,2.11,8.58,5.34,10.53,10.15,2.46,6.07,2.24,13.43,1,19.73-1.3,6.72-3.72,14-9,18.66a20.25,20.25,0,0,1-16.14,4.75,39.93,39.93,0,0,1-19-8.43c-5.7-4.52-9.89-10.7-15.44-15.45-10.71-9.15-23.54-15.28-36.82-19.75a282.39,282.39,0,0,0-45.56-11c-17.5-2.79-35.12-3.57-52.78-4.61-16.9-1-33.81-1.78-50.72-2.46l-13-.53c14.11-5.73,28.47-10.76,42.42-16.91a367.59,367.59,0,0,0,40.51-20.69,307.61,307.61,0,0,0,64.51-51.5c11.4-11.94,21.47-24.94,31.66-37.91C1011.13,942.89,1001.63,937.4,1006,931.85Z" transform="translate(-63.99 -15.89)"/><path class="a" d="M250.81,773.05c-.59-1.89.63-4.09,1.38-5.75q1.74-3.87,3.51-7.73,3.33-7.31,6.69-14.6,6.84-14.86,13.66-29.74,13.7-29.91,27.4-59.82l7.45-16.22,3.82-8.31c1.14-2.47,2-5,4.35-6.63,0,18,.62,35.73,3.43,53.56a368.5,368.5,0,0,0,12.06,51.86,239,239,0,0,0,14.16,36.13c5.6,11.21,11.7,22.17,18,33,6.06,10.49,12.22,21,19,31-6.12-1.28-12.24-2.52-18.35-3.83a329.58,329.58,0,0,1-46.49-13.49q-11.73-4.4-23.07-9.73A96.24,96.24,0,0,1,285.12,796l-17.79-11.91Z" transform="translate(-63.99 -15.89)"/><path class="a" d="M446.78,600c-5.68-84.46,18.57-159.28,72.4-225.95C518.83,380.77,452.4,588.68,446.78,600Z" transform="translate(-63.99 -15.89)"/><path class="a" d="M710.47,601.07c5.68-84.46-18.57-159.28-72.4-225.95C638.42,381.84,704.85,589.75,710.47,601.07Z" transform="translate(-63.99 -15.89)"/><path class="a" d="M761.5,838.71c-.13-.46.7-1.46.91-1.81.83-1.37,1.74-2.69,2.64-4,2.72-4,5.54-7.95,8.35-11.89,4.7-6.57,9.72-13,14.19-19.7,4.61-6.92,8.59-14.43,12.49-21.77a250.42,250.42,0,0,0,12.24-26.6,354.45,354.45,0,0,0,16.49-57.26,322.52,322.52,0,0,0,5-33.48c.55-5.65,1-11.26,1-16.93a152.18,152.18,0,0,1,1.16-17.86c18.21,39.51,36,79.2,54,118.81q3.4,7.51,6.81,15,1.61,3.56,3.2,7.12c.93,2.09,2.27,4.34,2.43,6.67.11,1.54-.21,1.81-1.46,2.65l-2.93,1.94q-3.11,2-6.26,4-6.31,4-12.77,7.68A442.91,442.91,0,0,1,825,817.53a523.45,523.45,0,0,1-63.54,21.18C761.13,837.41,810.95,825.59,761.5,838.71Z" transform="translate(-63.99 -15.89)"/><path class="a" d="M679.1,942.76c10.67-6.22,22.57-10.24,32.49-17.73-12-3.94-24.77-4.7-37.2-6.77-12.79-2.12-25.62-4.37-38-8.16,15.45-6.45,30.83-12.51,45.58-20.53q11-6,21.52-12.77c3.2-2.06,6.33-4.59,9.95-5.87s7.6-.84,11.5-.67c34.77,1.5,69.68-3.78,103.13-13.08a345,345,0,0,0,53.11-19.59c-3.07,6.39-7.62,12-12.27,17.29a141.25,141.25,0,0,1-15.64,15.36c-5.95,5-12.41,9.27-18.68,13.83-6.45,4.69-12.84,9.46-19.68,13.57a330.47,330.47,0,0,1-83.42,35.91q-12.22,3.32-24.69,5.63c-9.19,1.7-18.38,2.62-27.66,3.58C689.77,936.55,684.77,942.18,679.1,942.76Z" transform="translate(-63.99 -15.89)"/><text class="b" transform="translate(916.88 1105.42)">TM</text></svg>