<svg version="1.1" xmlns="http://www.w3.org/2000/svg" viewBox="0 0 16 16">
<title>logo_light_shattrath</title>
<g>
	<path fill="#a78bfa" d="M0,0h4c0,1.33,0,2.67,0,4C2.67,4,1.33,4,0,4V0z"/>
	<path fill="#a78bfa" d="M4,4c1.33,0,2.67,0,4,0c0,1.33,0,2.67,0,4C6.67,8,5.33,8,4,8C4,6.67,4,5.33,4,4z"/>
	<path fill="#a78bfa" d="M8,8c1.33,0,2.67,0,4,0c0,1.33,0,2.67,0,4c-1.33,0-2.67,0-4,0C8,10.67,8,9.33,8,8z"/>
	<path fill="#a78bfa" d="M12,12c1.33,0,2.67,0,4,0v4h-4C12,14.67,12,13.33,12,12z"/>
</g>
<g>
	<path fill="#8b5cf6" d="M4,0h4c0,1.33,0,2.67,0,4C6.67,4,5.33,4,4,4C4,2.67,4,1.33,4,0z"/>
	<path fill="#8b5cf6" d="M8,4c1.33,0,2.67,0,4,0c0,1.33,0,2.67,0,4c-1.33,0-2.67,0-4,0C8,6.67,8,5.33,8,4z"/>
	<path fill="#8b5cf6" d="M12,8c1.33,0,2.67,0,4,0v4c-1.33,0-2.67,0-4,0C12,10.67,12,9.33,12,8z"/>
</g>
<g>
	<path fill="#7c3aed" d="M8,0h4c0,1.33,0,2.67,0,4c-1.33,0-2.67,0-4,0C8,2.67,8,1.33,8,0z"/>
	<path fill="#7c3aed" d="M12,4c1.33,0,2.67,0,4,0v4c-1.33,0-2.67,0-4,0C12,6.67,12,5.33,12,4z"/>
</g>
<g>
	<path fill="#6d28d9" d="M12,0h4v4c-1.33,0-2.67,0-4,0C12,2.67,12,1.33,12,0z"/>
</g>
<g>
	<path fill="#e9d5ff" d="M0,4c1.33,0,2.67,0,4,0c0,1.33,0,2.67,0,4C2.67,8,1.33,8,0,8V4z"/>
	<path fill="#e9d5ff" d="M4,8c1.33,0,2.67,0,4,0c0,1.33,0,2.67,0,4c-1.33,0-2.67,0-4,0C4,10.67,4,9.33,4,8z"/>
	<path fill="#e9d5ff" d="M8,12c1.33,0,2.67,0,4,0c0,1.33,0,2.67,0,4H8C8,14.67,8,13.33,8,12z"/>
</g>
<g>
	<path fill="#f3e8ff" d="M0,8c1.33,0,2.67,0,4,0c0,1.33,0,2.67,0,4c-1.33,0-2.67,0-4,0V8z"/>
	<path fill="#f3e8ff" d="M4,12c1.33,0,2.67,0,4,0c0,1.33,0,2.67,0,4H4C4,14.67,4,13.33,4,12z"/>
</g>
<g>
	<path fill="#faf5ff" d="M0,12c1.33,0,2.67,0,4,0c0,1.33,0,2.67,0,4H0V12z"/>
</g>
</svg>
