<svg id="Layer_1" data-name="Layer 1" xmlns="http://www.w3.org/2000/svg" viewBox="0 0 16 16">
<title>logo_aod_red</title>
<path fill="#990007" d="M0,0H4V4H0Z"/>
<path fill="#990007" d="M4,4H8V8H4Z"/>
<path fill="#990007" d="M8,8h4v4H8Z"/>
<path fill="#990007" d="M12,12h4v4H12Z"/>
<path fill="#b30008" d="M4,0H8V4H4Z"/>
<path fill="#b30008" d="M8,4h4V8H8Z"/>
<path fill="#b30008" d="M12,8h4v4H12Z"/>
<path fill="#CC0009" d="M8,0h4V4H8Z"/>
<path fill="#CC0009" d="M12,4h4V8H12Z"/>
<path fill="#E63038" d="M12,0h4V4H12Z"/>
<path fill="#9a9ea2" d="M0,4H4V8H0Z"/>
<path fill="#9a9ea2" d="M4,8H8v4H4Z"/>
<path fill="#9a9ea2" d="M8,12h4v4H8Z"/>
<path fill="#b4b8bc" d="M0,8H4v4H0Z"/>
<path fill="#b4b8bc" d="M4,12H8v4H4Z"/>
<path fill="#C4C8CC" d="M0,12H4v4H0Z"/>
</svg>
