<svg id="Layer_1" data-name="Layer 1" xmlns="http://www.w3.org/2000/svg" viewBox="0 0 16 16"><defs><style>.cls-1{fill:#d1733c;}.cls-2{fill:#c5573e;}.cls-3{fill:#af4822;}.cls-4{fill:#903e00;}.cls-5{fill:#fed530;}.cls-6{fill:#fff821;}.cls-7{fill:#f7f7f7;}</style></defs><title>logo_v2</title><path class="cls-1" d="M0,0H4V4H0Z"/><path class="cls-1" d="M4,4H8V8H4Z"/><path class="cls-1" d="M8,8h4v4H8Z"/><path class="cls-1" d="M12,12h4v4H12Z"/><path class="cls-2" d="M4,0H8V4H4Z"/><path class="cls-2" d="M8,4h4V8H8Z"/><path class="cls-2" d="M12,8h4v4H12Z"/><path class="cls-3" d="M8,0h4V4H8Z"/><path class="cls-3" d="M12,4h4V8H12Z"/><path class="cls-4" d="M12,0h4V4H12Z"/><path class="cls-5" d="M0,4H4V8H0Z"/><path class="cls-5" d="M4,8H8v4H4Z"/><path class="cls-5" d="M8,12h4v4H8Z"/><path class="cls-6" d="M0,8H4v4H0Z"/><path class="cls-6" d="M4,12H8v4H4Z"/><path class="cls-7" d="M0,12H4v4H0Z"/></svg>