<?xml version="1.0" encoding="utf-8"?>
<!-- Generator: Adobe Illustrator 15.0.0, SVG Export Plug-In . SVG Version: 6.00 Build 0)  -->
<!DOCTYPE svg PUBLIC "-//W3C//DTD SVG 1.1//EN" "http://www.w3.org/Graphics/SVG/1.1/DTD/svg11.dtd">
<svg version="1.1" id="Layer_1" xmlns="http://www.w3.org/2000/svg" xmlns:xlink="http://www.w3.org/1999/xlink" x="0px" y="0px"
	 width="16px" height="16px" viewBox="0 0 16 16" enable-background="new 0 0 16 16" xml:space="preserve">
<g>
	<path fill="#B0D13C" d="M0,0h4c0,1.33,0,2.67,0,4C2.67,4,1.33,4,0,4V0z"/>
	<path fill="#B0D13C" d="M4,4c1.33,0,2.67,0,4,0c0,1.33,0,2.67,0,4C6.67,8,5.33,8,4,8C4,6.67,4,5.33,4,4z"/>
	<path fill="#B0D13C" d="M8,8c1.33,0,2.67,0,4,0c0,1.33,0,2.67,0,4c-1.33,0-2.67,0-4,0C8,10.67,8,9.33,8,8z"/>
	<path fill="#B0D13C" d="M12,12c1.33,0,2.67,0,4,0v4h-4C12,14.67,12,13.33,12,12z"/>
</g>
<g>
	<path fill="#88C53E" d="M4,0h4c0,1.33,0,2.67,0,4C6.67,4,5.33,4,4,4C4,2.67,4,1.33,4,0z"/>
	<path fill="#88C53E" d="M8,4c1.33,0,2.67,0,4,0c0,1.33,0,2.67,0,4c-1.33,0-2.67,0-4,0C8,6.67,8,5.33,8,4z"/>
	<path fill="#88C53E" d="M12,8c1.33,0,2.67,0,4,0v4c-1.33,0-2.67,0-4,0C12,10.67,12,9.33,12,8z"/>
</g>
<g>
	<path fill="#22AF48" d="M8,0h4c0,1.33,0,2.67,0,4c-1.33,0-2.67,0-4,0C8,2.67,8,1.33,8,0z"/>
	<path fill="#22AF48" d="M12,4c1.33,0,2.67,0,4,0v4c-1.33,0-2.67,0-4,0C12,6.67,12,5.33,12,4z"/>
</g>
<g>
	<path fill="#009044" d="M12,0h4v4c-1.33,0-2.67,0-4,0C12,2.67,12,1.33,12,0z"/>
</g>
<g>
	<path fill="#D2EDFE" d="M0,4c1.33,0,2.67,0,4,0c0,1.33,0,2.67,0,4C2.67,8,1.33,8,0,8V4z"/>
	<path fill="#D2EDFE" d="M4,8c1.33,0,2.67,0,4,0c0,1.33,0,2.67,0,4c-1.33,0-2.67,0-4,0C4,10.67,4,9.33,4,8z"/>
	<path fill="#D2EDFE" d="M8,12c1.33,0,2.67,0,4,0c0,1.33,0,2.67,0,4H8C8,14.67,8,13.33,8,12z"/>
</g>
<g>
	<path fill="#9DD6FA" d="M0,8c1.33,0,2.67,0,4,0c0,1.33,0,2.67,0,4c-1.33,0-2.67,0-4,0V8z"/>
	<path fill="#9DD6FA" d="M4,12c1.33,0,2.67,0,4,0c0,1.33,0,2.67,0,4H4C4,14.67,4,13.33,4,12z"/>
</g>
<g>
	<path fill="#52C8F7" d="M0,12c1.33,0,2.67,0,4,0c0,1.33,0,2.67,0,4H0V12z"/>
</g>
</svg>
